<svg xmlns="http://www.w3.org/2000/svg" width="285.451" height="30.938" viewBox="0 0 285.451 30.938">
  <g id="Lockup" transform="translate(-126.501 -353.368)">
    <g id="Microsoft_Logo" data-name="Microsoft Logo" transform="translate(280.918 353.869)">
      <path id="Microsoft" d="M88.408,14.41V8.259H84.2v9.679H81.353V8.259H79.372v-2.3h1.981V4.3a4.544,4.544,0,0,1,.54-2.237A3.843,3.843,0,0,1,83.435.541,4.632,4.632,0,0,1,85.677,0a4.8,4.8,0,0,1,1.578.213L87.3.232V2.651L87.2,2.6a3.022,3.022,0,0,0-1.234-.283,1.637,1.637,0,0,0-1.3.54,2.4,2.4,0,0,0-.465,1.6V5.966h4.213v-2.7l.054-.016,2.675-.83.1-.031V5.961h2.84v2.3H91.228v5.654a2.4,2.4,0,0,0,.384,1.54,1.527,1.527,0,0,0,1.212.441,2.183,2.183,0,0,0,.562-.1,1.9,1.9,0,0,0,.569-.25l.115-.077v2.32l-.038.022a3.264,3.264,0,0,1-.879.281,5.733,5.733,0,0,1-1.2.133C89.6,18.227,88.408,16.942,88.408,14.41ZM68.466,16.571a6.124,6.124,0,0,1-1.639-4.481,6.462,6.462,0,0,1,1.68-4.7,6.223,6.223,0,0,1,4.647-1.718,5.792,5.792,0,0,1,4.371,1.644A6.284,6.284,0,0,1,79.1,11.829a6.45,6.45,0,0,1-1.679,4.649,6.063,6.063,0,0,1-4.555,1.743,5.944,5.944,0,0,1-4.4-1.65ZM70.6,9.041a4.5,4.5,0,0,0-.868,2.954,4.342,4.342,0,0,0,.868,2.882A3.01,3.01,0,0,0,73.021,15.9a2.844,2.844,0,0,0,2.361-1,4.708,4.708,0,0,0,.805-2.968,4.42,4.42,0,0,0-.852-2.932A2.918,2.918,0,0,0,72.994,8,2.961,2.961,0,0,0,70.6,9.041ZM59.215,18.047a7.058,7.058,0,0,1-1.506-.466l-.045-.02V14.806l.119.085a5.81,5.81,0,0,0,1.592.811,5.025,5.025,0,0,0,1.554.285c1.236,0,1.837-.393,1.837-1.2a1.173,1.173,0,0,0-.18-.679,2.024,2.024,0,0,0-.634-.521,12.451,12.451,0,0,0-1.441-.672,7.435,7.435,0,0,1-1.727-.971,2.992,2.992,0,0,1-.85-1.115,3.717,3.717,0,0,1-.277-1.484,3.262,3.262,0,0,1,1.284-2.657,5.124,5.124,0,0,1,3.294-1.021,7.744,7.744,0,0,1,1.4.144,6.248,6.248,0,0,1,1.275.36l.045.02V8.8l-.115-.079a4.64,4.64,0,0,0-1.261-.585A4.908,4.908,0,0,0,62.14,7.91a1.934,1.934,0,0,0-1.209.342,1.028,1.028,0,0,0-.432.854,1.232,1.232,0,0,0,.34.922,6.045,6.045,0,0,0,1.686.879,5.971,5.971,0,0,1,2.367,1.511,3.141,3.141,0,0,1,.7,2.059,3.328,3.328,0,0,1-1.3,2.72,5.448,5.448,0,0,1-3.478,1.025,8.078,8.078,0,0,1-1.594-.182ZM45.678,16.571a6.124,6.124,0,0,1-1.639-4.481,6.466,6.466,0,0,1,1.679-4.7,6.228,6.228,0,0,1,4.649-1.718,5.789,5.789,0,0,1,4.37,1.644,6.288,6.288,0,0,1,1.576,4.517,6.446,6.446,0,0,1-1.68,4.649,6.057,6.057,0,0,1-4.555,1.743A5.944,5.944,0,0,1,45.678,16.571ZM47.82,9.043A4.5,4.5,0,0,0,46.95,12a4.343,4.343,0,0,0,.87,2.882A3.008,3.008,0,0,0,50.237,15.9a2.84,2.84,0,0,0,2.359-1,4.708,4.708,0,0,0,.8-2.966A4.42,4.42,0,0,0,52.548,9a2.92,2.92,0,0,0-2.341-.991A2.961,2.961,0,0,0,47.82,9.041ZM28.328,17.472a5.3,5.3,0,0,1-2.1-2.125,6.369,6.369,0,0,1-.751-3.085,7.4,7.4,0,0,1,.774-3.442A5.524,5.524,0,0,1,28.5,6.5a6.918,6.918,0,0,1,3.422-.823,7.768,7.768,0,0,1,1.569.168,4.636,4.636,0,0,1,1.3.441l.038.022v2.72l-.119-.086a4.5,4.5,0,0,0-2.673-.931A3.433,3.433,0,0,0,29.405,9.1a4.155,4.155,0,0,0-1.01,2.923,4.007,4.007,0,0,0,.964,2.848,3.456,3.456,0,0,0,2.63,1.028,4.143,4.143,0,0,0,1.345-.263,5.211,5.211,0,0,0,1.374-.72l.119-.086v2.585l-.036.022a6.715,6.715,0,0,1-3.388.794,6.246,6.246,0,0,1-3.075-.755Zm8.615.459V5.961h2.808V8.036h.031a3.827,3.827,0,0,1,1.081-1.607,2.871,2.871,0,0,1,1.879-.677,2.9,2.9,0,0,1,1.1.168l.045.02V8.782L43.767,8.7a2.107,2.107,0,0,0-.654-.267,3.285,3.285,0,0,0-.847-.124,2.142,2.142,0,0,0-1.816.962,4.281,4.281,0,0,0-.7,2.543v6.124Zm-16.21,0V5.961h2.808V17.938Zm-5.583,0V7.3c0-.672.061-1.785.126-3h-.05a10.627,10.627,0,0,1-.342,1.32L9.906,17.938H8.028L3.019,5.749c-.1-.322-.245-.8-.382-1.432H2.577c.013.272.063.627.077,1.07.027.877.04,1.644.04,2.278V17.931H0V1.226H4.083L8.262,11.737A21.053,21.053,0,0,1,9.006,13.9h.045l.774-2.2L14.106,1.226h3.923V17.938ZM20.965,3.67a1.515,1.515,0,0,1-.5-1.151,1.56,1.56,0,0,1,.5-1.176,1.691,1.691,0,0,1,1.2-.47,1.67,1.67,0,0,1,1.221.483,1.587,1.587,0,0,1,.488,1.164,1.509,1.509,0,0,1-.5,1.151,1.731,1.731,0,0,1-1.209.457,1.709,1.709,0,0,1-1.2-.457Z" transform="translate(36.462 4.573)" fill="#606060" stroke="rgba(0,0,0,0)" stroke-miterlimit="10" stroke-width="1"/>
      <g id="Color" transform="translate(0.583 -0.001)">
        <path id="Path_185177" data-name="Path 185177" d="M-84.5,158.561H-97.623V145.435H-84.5v13.126" transform="translate(97.623 -145.435)" fill="#e83919"/>
        <path id="Path_185178" data-name="Path 185178" d="M-72.174,158.56H-85.3V145.434h13.125V158.56" transform="translate(100.176 -145.434)" fill="#7cad2d"/>
        <path id="Path_185179" data-name="Path 185179" d="M-84.5,170.926H-97.624V157.8H-84.5v13.123" transform="translate(97.624 -142.923)" fill="#0b8fd1"/>
        <path id="Path_185180" data-name="Path 185180" d="M-72.174,170.926H-85.3V157.8h13.125v13.123" transform="translate(100.176 -142.923)" fill="orange"/>
      </g>
    </g>
    <path id="X" d="M-14307.832,965.286l-4.824,4.826-1.426-1.422,4.827-4.828-4.827-4.828,1.426-1.422,4.824,4.826,4.825-4.826,1.425,1.422-4.827,4.828,4.827,4.828-1.425,1.422Z" transform="translate(14567.083 -593.744)" fill="#000b1d"/>
    <path id="Adobe_Logo" data-name="Adobe Logo" d="M-14012.919,1321.865h12v28Zm-1.2,28-2.291-5.8h-5.6l5.251-12.4,7.653,18.2Zm-18.885-28h12.016l-12.016,28Zm86.117,22.215a.308.308,0,0,1-.148-.25v-16.887c0-.126.049-.176.179-.176h3.024c.194,0,.247.025.247.2v5.1a8,8,0,0,1,2.078-.271,5.676,5.676,0,0,1,5.946,5.917c0,4.65-3.662,6.943-7.435,6.943A13.064,13.064,0,0,1-13946.882,1344.081Zm3.3-9.152v6.736a3.549,3.549,0,0,0,.913.1,3.417,3.417,0,0,0,3.6-3.732c0-2.265-1.315-3.307-3.05-3.307A5.02,5.02,0,0,0-13943.58,1334.928Zm-31.1,3.405c0-3.553,2.647-6.536,7.179-6.536.206,0,.452.025.82.049v-4.9a.159.159,0,0,1,.176-.176h3.12c.13,0,.148.049.148.151v14.7a14.342,14.342,0,0,0,.1,1.821c0,.123-.024.173-.172.222a12.522,12.522,0,0,1-4.886,1C-13971.854,1344.657-13974.68,1342.562-13974.68,1338.333Zm3.541-.173c0,2.465,1.415,3.535,3.294,3.535a3.482,3.482,0,0,0,1.164-.154v-6.736a2.555,2.555,0,0,0-.919-.123A3.308,3.308,0,0,0-13971.139,1338.161Zm36.908.2c0-3.43,2.112-6.561,6-6.561a5.063,5.063,0,0,1,5.232,5.368,7.708,7.708,0,0,1-.126,1.664.211.211,0,0,1-.2.2,23.183,23.183,0,0,1-2.555.1h-4.837c.133,1.421,1.12,2.582,3.549,2.582a7.651,7.651,0,0,0,3.05-.57c.071-.049.148-.025.148.126v2.364c0,.173-.05.246-.176.3a8.284,8.284,0,0,1-3.794.721C-13932.595,1344.651-13934.23,1341.443-13934.23,1338.358Zm3.5-1.639h3.246a8.087,8.087,0,0,0,1.239-.049v-.172a2.018,2.018,0,0,0-2.109-1.969A2.349,2.349,0,0,0-13930.731,1336.719Zm-30.524,1.516c0-3.529,2.352-6.437,6.17-6.437,3.991,0,6.045,3.008,6.045,6.364,0,3.908-2.53,6.49-6.094,6.49C-13959.375,1344.651-13961.256,1341.443-13961.256,1338.235Zm3.492-.049c0,2.191,1.018,3.584,2.678,3.584,1.437,0,2.527-1.245,2.527-3.535,0-1.938-.793-3.553-2.675-3.553C-13956.672,1334.682-13957.764,1335.97-13957.764,1338.186Zm-20.655,6.216a.255.255,0,0,1-.276-.173l-1.261-3.7h-5.722l-1.192,3.679a.268.268,0,0,1-.271.2h-2.875c-.178,0-.228-.1-.2-.247l4.953-14.351a4.566,4.566,0,0,0,.246-1.516.165.165,0,0,1,.15-.176h3.967c.119,0,.172.025.2.151l5.627,15.917c.049.123.024.222-.123.222Zm-6.374-6.983h3.918c-.492-1.646-1.485-4.656-1.956-6.419h-.024C-13983.255,1332.663-13984.144,1335.4-13984.793,1337.418Z" transform="translate(14160 -967.998)" fill="#fa0f00" stroke="rgba(0,0,0,0)" stroke-miterlimit="10" stroke-width="1"/>
  </g>
</svg>